<svg xmlns="http://www.w3.org/2000/svg" viewBox="0 0 1280 640" width="1280" height="640" role="img" aria-labelledby="bn-title bn-desc">
  <title id="bn-title">Open Standards for SI Edge Devices</title>
  <desc id="bn-desc">Social preview card: the headline Open Standards for SI Edge Devices in large white type on a black background, with the line github.com/selfkin below it in grey.</desc>
  <rect width="1280" height="640" fill="#000000"/>
  <path fill="#FFFFFF" d="M241.7 251.05Q232.31 251.05 224.85 246.66Q217.39 242.27 213.08 234.19Q208.77 226.11 208.77 215.05Q208.77 203.89 213.08 195.8Q217.39 187.7 224.85 183.33Q232.31 178.95 241.7 178.95Q251.11 178.95 258.54 183.33Q265.98 187.7 270.3 195.8Q274.62 203.89 274.62 215.05Q274.62 226.13 270.3 234.21Q265.98 242.3 258.54 246.67Q251.11 251.05 241.7 251.05ZM241.7 238.31Q247.09 238.31 251.25 235.59Q255.4 232.86 257.76 227.65Q260.11 222.45 260.11 215.05Q260.11 207.6 257.76 202.37Q255.4 197.14 251.25 194.41Q247.09 191.69 241.7 191.69Q236.33 191.69 232.17 194.41Q228.02 197.14 225.65 202.37Q223.29 207.6 223.29 215.05Q223.29 222.45 225.65 227.65Q228.02 232.86 232.17 235.59Q236.33 238.31 241.7 238.31ZM282.48 269.52V200.42H296.08V207.13H296.25Q297.77 204.54 299.97 202.82Q302.16 201.11 304.95 200.25Q307.73 199.38 310.92 199.38Q317.26 199.38 322.05 202.64Q326.84 205.9 329.54 211.7Q332.24 217.51 332.24 225.12Q332.24 232.87 329.58 238.68Q326.92 244.5 322.12 247.73Q317.31 250.96 310.82 250.96Q307.58 250.96 304.85 250.01Q302.12 249.06 299.98 247.18Q297.84 245.31 296.41 242.52H296.27V269.52ZM307.25 239.71Q310.62 239.71 313.09 238Q315.57 236.28 316.93 233.02Q318.3 229.75 318.3 225.12Q318.3 220.47 316.93 217.23Q315.57 213.99 313.09 212.28Q310.62 210.56 307.25 210.56Q303.77 210.56 301.14 212.36Q298.51 214.16 297.06 217.43Q295.61 220.69 295.61 225.12Q295.61 229.54 297.06 232.82Q298.51 236.11 301.14 237.91Q303.77 239.71 307.25 239.71ZM362.44 251.05Q354.95 251.05 349.37 247.73Q343.8 244.42 340.74 238.57Q337.68 232.72 337.68 225.22Q337.68 217.64 340.79 211.8Q343.9 205.95 349.38 202.62Q354.86 199.3 361.98 199.3Q367.44 199.3 371.91 201.16Q376.37 203.02 379.6 206.45Q382.84 209.88 384.58 214.58Q386.33 219.27 386.33 224.94V228.66H342.61V219.84H379.67L373.44 221.93Q373.44 218.18 372.08 215.47Q370.72 212.75 368.22 211.28Q365.73 209.81 362.26 209.81Q358.84 209.81 356.34 211.28Q353.84 212.75 352.48 215.47Q351.12 218.18 351.12 221.93V227.96Q351.12 231.78 352.5 234.65Q353.88 237.53 356.51 239.11Q359.13 240.69 362.85 240.69Q365.55 240.69 367.66 239.9Q369.76 239.12 371.18 237.69Q372.59 236.27 373.21 234.38H385.84Q384.93 239.29 381.65 243.04Q378.36 246.79 373.4 248.92Q368.44 251.05 362.44 251.05ZM407.55 222.42V249.92H393.76V200.42H407.34V213.31H404.99Q407.35 206.73 411.7 203.06Q416.05 199.38 422.79 199.38Q428.09 199.38 431.98 201.66Q435.88 203.94 438.02 208.3Q440.17 212.66 440.17 218.92V249.92H426.38V221.46Q426.38 216.48 424 213.89Q421.63 211.3 417.27 211.3Q414.42 211.3 412.22 212.48Q410.03 213.65 408.79 216.11Q407.55 218.57 407.55 222.42ZM497.27 251.05Q488.35 251.05 482.01 248.2Q475.67 245.36 472.31 239.97Q468.95 234.59 468.95 227.02H482.87Q482.94 230.82 484.7 233.56Q486.46 236.3 489.69 237.75Q492.93 239.21 497.39 239.21Q501.42 239.21 504.39 238.1Q507.37 236.99 509.03 234.97Q510.7 232.96 510.7 230.24Q510.7 227.99 509.42 226.32Q508.13 224.64 505.38 223.39Q502.62 222.14 498.16 221.18L490.82 219.59Q480.43 217.34 475.37 212.5Q470.31 207.67 470.31 200.19Q470.31 193.81 473.62 189.04Q476.94 184.28 482.91 181.61Q488.88 178.95 496.8 178.95Q504.85 178.95 510.72 181.66Q516.58 184.38 519.83 189.43Q523.08 194.48 523.3 201.51H509.79Q509.44 196.52 505.97 193.67Q502.51 190.81 496.88 190.81Q493.34 190.81 490.59 191.92Q487.85 193.03 486.29 194.98Q484.72 196.93 484.72 199.49Q484.72 201.65 485.95 203.21Q487.18 204.77 489.85 205.95Q492.51 207.13 496.79 208.07L503.47 209.53Q509.06 210.72 513.13 212.47Q517.2 214.23 519.82 216.65Q522.45 219.07 523.72 222.21Q524.99 225.35 524.99 229.29Q524.99 236.02 521.64 240.9Q518.3 245.79 512.09 248.42Q505.87 251.05 497.27 251.05ZM561.59 200.42V211.26H529.1V200.42ZM537.66 186.92H551.45V234.63Q551.45 237.14 552.47 238.11Q553.49 239.08 556.28 239.08Q557.46 239.08 559.08 239.08Q560.71 239.08 561.59 239.08V249.92Q560.34 249.92 558.09 249.92Q555.84 249.92 553.56 249.92Q545.36 249.92 541.51 246.73Q537.66 243.53 537.66 236.79ZM583.7 250.75Q578.76 250.75 574.92 249.11Q571.08 247.47 568.86 244.19Q566.65 240.9 566.65 235.98Q566.65 231.76 568.2 228.97Q569.76 226.19 572.44 224.49Q575.13 222.79 578.63 221.9Q582.13 221.02 585.99 220.65Q590.52 220.2 593.2 219.78Q595.88 219.36 597.04 218.56Q598.2 217.76 598.2 216.16V215.85Q598.2 214.01 597.23 212.62Q596.26 211.23 594.46 210.44Q592.65 209.65 590.12 209.65Q587.56 209.65 585.62 210.46Q583.68 211.27 582.55 212.72Q581.42 214.17 581.24 216.09H568.24Q568.58 210.97 571.28 207.22Q573.99 203.48 578.86 201.43Q583.73 199.38 590.53 199.38Q595.6 199.38 599.57 200.54Q603.54 201.7 606.28 203.91Q609.02 206.12 610.44 209.25Q611.85 212.39 611.85 216.35V249.92H598.36V242.94H598.17Q596.87 245.36 594.94 247.11Q593 248.86 590.25 249.81Q587.49 250.75 583.7 250.75ZM587.51 241.17Q590.84 241.17 593.27 239.94Q595.69 238.72 597 236.61Q598.3 234.51 598.3 231.83V226.86Q597.71 227.18 596.72 227.48Q595.73 227.78 594.42 228.05Q593.11 228.33 591.57 228.59Q590.03 228.86 588.35 229.11Q585.99 229.46 584.07 230.24Q582.15 231.01 581.01 232.31Q579.87 233.61 579.87 235.58Q579.87 237.32 580.82 238.58Q581.78 239.84 583.49 240.5Q585.2 241.17 587.51 241.17ZM635.41 222.42V249.92H621.62V200.42H635.2V213.31H632.85Q635.21 206.73 639.56 203.06Q643.91 199.38 650.65 199.38Q655.94 199.38 659.84 201.66Q663.74 203.94 665.88 208.3Q668.03 212.66 668.03 218.92V249.92H654.24V221.46Q654.24 216.48 651.86 213.89Q649.49 211.3 645.13 211.3Q642.28 211.3 640.08 212.48Q637.89 213.65 636.65 216.11Q635.41 218.57 635.41 222.42ZM697.06 250.96Q690.62 250.96 685.79 247.73Q680.97 244.5 678.31 238.68Q675.65 232.87 675.65 225.12Q675.65 217.51 678.34 211.7Q681.04 205.9 685.85 202.64Q690.67 199.38 696.96 199.38Q700.2 199.38 702.91 200.25Q705.63 201.11 707.8 202.85Q709.98 204.59 711.55 207.28H711.61V180.08H725.41V249.92H711.8V242.32H711.73Q710.31 245.21 708.11 247.13Q705.91 249.06 703.12 250.01Q700.32 250.96 697.06 250.96ZM700.64 239.71Q704.14 239.71 706.76 237.91Q709.37 236.11 710.82 232.82Q712.27 229.54 712.27 225.12Q712.27 220.69 710.82 217.43Q709.37 214.16 706.76 212.36Q704.14 210.56 700.64 210.56Q697.31 210.56 694.81 212.28Q692.32 213.99 690.95 217.23Q689.58 220.47 689.58 225.12Q689.58 229.75 690.95 233.02Q692.32 236.28 694.81 238Q697.31 239.71 700.64 239.71ZM750.34 250.75Q745.4 250.75 741.56 249.11Q737.72 247.47 735.51 244.19Q733.3 240.9 733.3 235.98Q733.3 231.76 734.85 228.97Q736.4 226.19 739.08 224.49Q741.77 222.79 745.27 221.9Q748.77 221.02 752.63 220.65Q757.16 220.2 759.84 219.78Q762.52 219.36 763.68 218.56Q764.84 217.76 764.84 216.16V215.85Q764.84 214.01 763.87 212.62Q762.9 211.23 761.1 210.44Q759.29 209.65 756.76 209.65Q754.2 209.65 752.26 210.46Q750.32 211.27 749.19 212.72Q748.07 214.17 747.88 216.09H734.88Q735.22 210.97 737.92 207.22Q740.63 203.48 745.5 201.43Q750.37 199.38 757.17 199.38Q762.24 199.38 766.21 200.54Q770.18 201.7 772.92 203.91Q775.66 206.12 777.08 209.25Q778.49 212.39 778.49 216.35V249.92H765V242.94H764.81Q763.51 245.36 761.58 247.11Q759.64 248.86 756.89 249.81Q754.13 250.75 750.34 250.75ZM754.15 241.17Q757.48 241.17 759.91 239.94Q762.34 238.72 763.64 236.61Q764.95 234.51 764.95 231.83V226.86Q764.35 227.18 763.36 227.48Q762.37 227.78 761.06 228.05Q759.75 228.33 758.21 228.59Q756.67 228.86 754.99 229.11Q752.63 229.46 750.71 230.24Q748.79 231.01 747.65 232.31Q746.51 233.61 746.51 235.58Q746.51 237.32 747.46 238.58Q748.42 239.84 750.13 240.5Q751.85 241.17 754.15 241.17ZM788.26 249.92V200.42H801.58V208.86H801.71Q803.07 204.38 805.97 202.23Q808.88 200.08 813.77 200.08Q815 200.08 816.02 200.12Q817.03 200.16 817.85 200.21V211.97Q817.11 211.91 815.39 211.81Q813.68 211.71 811.92 211.71Q809.1 211.71 806.85 213Q804.61 214.29 803.33 216.83Q802.05 219.36 802.05 223.1V249.92ZM843.31 250.96Q836.87 250.96 832.04 247.73Q827.22 244.5 824.56 238.68Q821.9 232.87 821.9 225.12Q821.9 217.51 824.59 211.7Q827.29 205.9 832.1 202.64Q836.92 199.38 843.21 199.38Q846.45 199.38 849.16 200.25Q851.88 201.11 854.05 202.85Q856.23 204.59 857.8 207.28H857.86V180.08H871.66V249.92H858.05V242.32H857.98Q856.56 245.21 854.36 247.13Q852.16 249.06 849.37 250.01Q846.57 250.96 843.31 250.96ZM846.89 239.71Q850.39 239.71 853.01 237.91Q855.62 236.11 857.07 232.82Q858.52 229.54 858.52 225.12Q858.52 220.69 857.07 217.43Q855.62 214.16 853.01 212.36Q850.39 210.56 846.89 210.56Q843.56 210.56 841.06 212.28Q838.57 213.99 837.2 217.23Q835.83 220.47 835.83 225.12Q835.83 229.75 837.2 233.02Q838.57 236.28 841.06 238Q843.56 239.71 846.89 239.71ZM901.99 251.12Q895.58 251.12 890.57 249.15Q885.56 247.17 882.55 243.42Q879.53 239.66 879.1 234.38H892.7Q893.07 237.59 895.4 239.42Q897.74 241.24 901.75 241.24Q905.62 241.24 907.81 239.78Q910 238.32 910 236.03Q910 234.08 908.32 232.87Q906.63 231.66 903.58 231.06L894.91 229.39Q887.71 227.98 883.97 224.34Q880.23 220.69 880.23 214.97Q880.23 210.27 882.78 206.76Q885.33 203.25 890.05 201.31Q894.76 199.37 901.19 199.37Q907.62 199.37 912.4 201.42Q917.19 203.47 919.89 207.21Q922.6 210.95 922.74 216.12H909.94Q909.9 213.14 907.58 211.17Q905.27 209.2 901.6 209.2Q898.04 209.2 896 210.71Q893.97 212.22 893.97 214.42Q893.97 216.34 895.56 217.57Q897.16 218.8 899.99 219.4L909.37 221.22Q916.88 222.7 920.42 226.01Q923.96 229.31 923.96 234.78Q923.96 239.72 921.18 243.4Q918.39 247.07 913.43 249.1Q908.47 251.12 901.99 251.12ZM980.77 200.42V211.26H947.88V200.42ZM956.85 249.92V193.99Q956.85 189.36 958.64 186.28Q960.44 183.19 964.02 181.64Q967.59 180.08 972.92 180.08Q975.39 180.08 977.64 180.08Q979.89 180.08 980.77 180.08V190.92Q980.17 190.92 978.65 190.92Q977.12 190.92 976.05 190.92Q973.11 190.92 971.87 192.15Q970.64 193.39 970.64 196.32V249.92ZM1010.5 251.05Q1003.02 251.05 997.35 247.82Q991.67 244.59 988.51 238.78Q985.35 232.96 985.35 225.22Q985.35 217.44 988.51 211.62Q991.67 205.8 997.35 202.55Q1003.02 199.3 1010.5 199.3Q1018.02 199.3 1023.67 202.55Q1029.32 205.8 1032.48 211.62Q1035.64 217.44 1035.64 225.22Q1035.64 232.96 1032.48 238.78Q1029.32 244.59 1023.67 247.82Q1018.02 251.05 1010.5 251.05ZM1010.5 239.83Q1013.87 239.83 1016.38 238.09Q1018.9 236.35 1020.3 233.06Q1021.71 229.78 1021.71 225.22Q1021.71 220.58 1020.3 217.31Q1018.9 214.04 1016.38 212.28Q1013.87 210.51 1010.5 210.51Q1007.17 210.51 1004.63 212.27Q1002.09 214.02 1000.69 217.3Q999.28 220.58 999.28 225.22Q999.28 229.8 1000.69 233.08Q1002.09 236.35 1004.62 238.09Q1007.15 239.83 1010.5 239.83ZM1043.26 249.92V200.42H1056.58V208.86H1056.71Q1058.07 204.38 1060.97 202.23Q1063.88 200.08 1068.77 200.08Q1070 200.08 1071.02 200.12Q1072.03 200.16 1072.85 200.21V211.97Q1072.11 211.91 1070.39 211.81Q1068.68 211.71 1066.92 211.71Q1064.1 211.71 1061.85 213Q1059.61 214.29 1058.33 216.83Q1057.05 219.36 1057.05 223.1V249.92Z"/>
  <path fill="#FFFFFF" d="M316.26 371.05Q307.34 371.05 301 368.2Q294.66 365.36 291.3 359.97Q287.94 354.59 287.94 347.02H301.86Q301.93 350.82 303.69 353.56Q305.45 356.3 308.69 357.75Q311.92 359.21 316.39 359.21Q320.41 359.21 323.38 358.1Q326.36 356.99 328.03 354.97Q329.69 352.96 329.69 350.24Q329.69 347.99 328.41 346.32Q327.13 344.64 324.37 343.39Q321.61 342.14 317.16 341.18L309.81 339.59Q299.42 337.34 294.36 332.5Q289.3 327.67 289.3 320.19Q289.3 313.81 292.62 309.04Q295.93 304.28 301.9 301.61Q307.87 298.95 315.8 298.95Q323.85 298.95 329.71 301.66Q335.57 304.38 338.82 309.43Q342.07 314.48 342.29 321.51H328.78Q328.43 316.52 324.97 313.67Q321.5 310.81 315.87 310.81Q312.33 310.81 309.59 311.92Q306.84 313.03 305.28 314.98Q303.72 316.93 303.72 319.49Q303.72 321.65 304.95 323.21Q306.17 324.77 308.84 325.95Q311.51 327.13 315.78 328.07L322.46 329.53Q328.06 330.72 332.12 332.47Q336.19 334.23 338.81 336.65Q341.44 339.07 342.71 342.21Q343.98 345.35 343.98 349.29Q343.98 356.02 340.64 360.9Q337.3 365.79 331.08 368.42Q324.87 371.05 316.26 371.05ZM366.89 300.08V369.92H352.48V300.08ZM397.9 369.92V300.08H448.01V312.44H412.31V328.61H445.31V340.67H412.31V357.56H448.01V369.92ZM475.18 370.96Q468.73 370.96 463.91 367.73Q459.08 364.5 456.42 358.68Q453.76 352.87 453.76 345.12Q453.76 337.51 456.46 331.7Q459.16 325.9 463.97 322.64Q468.79 319.38 475.08 319.38Q478.32 319.38 481.03 320.25Q483.74 321.11 485.92 322.85Q488.1 324.59 489.66 327.28H489.73V300.08H503.52V369.92H489.92V362.32H489.85Q488.42 365.21 486.23 367.13Q484.03 369.06 481.24 370.01Q478.44 370.96 475.18 370.96ZM478.75 359.71Q482.26 359.71 484.88 357.91Q487.49 356.11 488.94 352.82Q490.39 349.54 490.39 345.12Q490.39 340.69 488.94 337.43Q487.49 334.16 484.88 332.36Q482.26 330.56 478.75 330.56Q475.43 330.56 472.93 332.28Q470.44 333.99 469.07 337.23Q467.7 340.47 467.7 345.12Q467.7 349.75 469.07 353.02Q470.44 356.28 472.93 358Q475.43 359.71 478.75 359.71ZM536.67 390.17Q529.65 390.17 524.75 388.17Q519.86 386.17 517.07 382.56Q514.29 378.96 513.58 374.16H526.9Q527.4 376.02 528.73 377.32Q530.07 378.63 532.09 379.31Q534.11 380 536.67 380Q541.74 380 544.48 377.23Q547.23 374.45 547.23 369.11V361.54H547.18Q545.73 364.42 543.54 366.3Q541.35 368.17 538.58 369.06Q535.81 369.95 532.56 369.95Q526.11 369.95 521.28 366.73Q516.46 363.51 513.8 357.83Q511.14 352.16 511.14 344.82Q511.14 337.35 513.84 331.62Q516.53 325.88 521.35 322.63Q526.16 319.38 532.46 319.38Q535.69 319.38 538.43 320.29Q541.17 321.19 543.4 323.01Q545.64 324.83 547.2 327.57H547.24V320.42H560.9V368Q560.9 375.84 557.84 380.73Q554.77 385.61 549.31 387.89Q543.85 390.17 536.67 390.17ZM536.13 358.9Q539.63 358.9 542.25 357.14Q544.87 355.37 546.31 352.15Q547.76 348.93 547.76 344.62Q547.76 340.28 546.31 337.07Q544.87 333.86 542.25 332.11Q539.63 330.36 536.13 330.36Q532.8 330.36 530.31 332.02Q527.81 333.69 526.44 336.88Q525.07 340.07 525.07 344.62Q525.07 349.14 526.44 352.34Q527.81 355.55 530.31 357.22Q532.8 358.9 536.13 358.9ZM593.28 371.05Q585.79 371.05 580.21 367.73Q574.63 364.42 571.57 358.57Q568.51 352.72 568.51 345.22Q568.51 337.64 571.63 331.8Q574.74 325.95 580.22 322.62Q585.7 319.3 592.82 319.3Q598.28 319.3 602.74 321.16Q607.21 323.02 610.44 326.45Q613.67 329.88 615.42 334.58Q617.17 339.27 617.17 344.94V348.66H573.44V339.84H610.51L604.28 341.93Q604.28 338.18 602.92 335.47Q601.56 332.75 599.06 331.28Q596.56 329.81 593.1 329.81Q589.68 329.81 587.18 331.28Q584.68 332.75 583.32 335.47Q581.96 338.18 581.96 341.93V347.96Q581.96 351.78 583.34 354.65Q584.71 357.53 587.34 359.11Q589.97 360.69 593.68 360.69Q596.39 360.69 598.49 359.9Q600.6 359.12 602.01 357.69Q603.43 356.27 604.05 354.38H616.68Q615.76 359.29 612.48 363.04Q609.2 366.79 604.24 368.92Q599.28 371.05 593.28 371.05ZM670.15 369.92H652.1V357.76H669.38Q676.44 357.76 681.03 355.13Q685.63 352.5 687.87 347.4Q690.12 342.3 690.12 334.96Q690.12 327.61 687.87 322.54Q685.62 317.48 681.05 314.86Q676.48 312.24 669.51 312.24H651.78V300.08H670.43Q680.93 300.08 688.61 304.33Q696.29 308.57 700.46 316.4Q704.63 324.23 704.63 334.96Q704.63 345.71 700.46 353.54Q696.3 361.38 688.59 365.65Q680.88 369.92 670.15 369.92ZM659.91 300.08V369.92H645.5V300.08ZM735.08 371.05Q727.58 371.05 722.01 367.73Q716.43 364.42 713.37 358.57Q710.31 352.72 710.31 345.22Q710.31 337.64 713.42 331.8Q716.54 325.95 722.02 322.62Q727.5 319.3 734.62 319.3Q740.08 319.3 744.54 321.16Q749 323.02 752.24 326.45Q755.47 329.88 757.22 334.58Q758.96 339.27 758.96 344.94V348.66H715.24V339.84H752.31L746.08 341.93Q746.08 338.18 744.71 335.47Q743.35 332.75 740.86 331.28Q738.36 329.81 734.89 329.81Q731.47 329.81 728.98 331.28Q726.48 332.75 725.12 335.47Q723.75 338.18 723.75 341.93V347.96Q723.75 351.78 725.13 354.65Q726.51 357.53 729.14 359.11Q731.77 360.69 735.48 360.69Q738.19 360.69 740.29 359.9Q742.39 359.12 743.81 357.69Q745.22 356.27 745.85 354.38H758.47Q757.56 359.29 754.28 363.04Q751 366.79 746.04 368.92Q741.07 371.05 735.08 371.05ZM780.41 369.92 762.05 320.42H776.54L784.72 344.87Q786.13 349.24 787.42 353.62Q788.7 357.99 789.95 362.36H786.66Q787.9 357.99 789.15 353.62Q790.39 349.24 791.76 344.87L799.8 320.42H814.13L795.76 369.92ZM819.55 369.92V320.42H833.34V369.92ZM826.42 314.21Q823.01 314.21 820.77 312.1Q818.53 309.99 818.53 306.83Q818.53 303.66 820.77 301.57Q823.01 299.49 826.4 299.49Q829.83 299.49 832.07 301.57Q834.31 303.65 834.31 306.85Q834.31 310.01 832.07 312.11Q829.82 314.21 826.42 314.21ZM865.79 371.05Q858.37 371.05 852.77 367.78Q847.17 364.51 844.06 358.69Q840.95 352.86 840.95 345.22Q840.95 337.55 844.06 331.7Q847.17 325.85 852.77 322.57Q858.37 319.3 865.79 319.3Q870.67 319.3 874.79 320.74Q878.9 322.18 881.98 324.8Q885.05 327.43 886.88 331.01Q888.72 334.59 889.06 338.93H875.68Q875.41 337.03 874.64 335.48Q873.88 333.93 872.64 332.81Q871.4 331.69 869.74 331.08Q868.08 330.46 866 330.46Q862.52 330.46 860.03 332.27Q857.54 334.07 856.21 337.37Q854.89 340.68 854.89 345.22Q854.89 349.7 856.21 353Q857.54 356.3 860.03 358.09Q862.52 359.88 866 359.88Q868.08 359.88 869.72 359.28Q871.36 358.68 872.55 357.55Q873.75 356.43 874.51 354.85Q875.28 353.26 875.61 351.32H889.06Q888.82 355.61 887.02 359.2Q885.22 362.8 882.13 365.46Q879.04 368.12 874.88 369.58Q870.72 371.05 865.79 371.05ZM919.01 371.05Q911.52 371.05 905.94 367.73Q900.37 364.42 897.31 358.57Q894.25 352.72 894.25 345.22Q894.25 337.64 897.36 331.8Q900.47 325.95 905.95 322.62Q911.43 319.3 918.55 319.3Q924.01 319.3 928.48 321.16Q932.94 323.02 936.17 326.45Q939.41 329.88 941.15 334.58Q942.9 339.27 942.9 344.94V348.66H899.18V339.84H936.25L930.01 341.93Q930.01 338.18 928.65 335.47Q927.29 332.75 924.79 331.28Q922.3 329.81 918.83 329.81Q915.41 329.81 912.91 331.28Q910.42 332.75 909.05 335.47Q907.69 338.18 907.69 341.93V347.96Q907.69 351.78 909.07 354.65Q910.45 357.53 913.08 359.11Q915.7 360.69 919.42 360.69Q922.12 360.69 924.23 359.9Q926.33 359.12 927.75 357.69Q929.16 356.27 929.79 354.38H942.41Q941.5 359.29 938.22 363.04Q934.93 366.79 929.97 368.92Q925.01 371.05 919.01 371.05ZM970.87 371.12Q964.46 371.12 959.45 369.15Q954.44 367.17 951.43 363.42Q948.42 359.66 947.99 354.38H961.58Q961.95 357.59 964.29 359.42Q966.62 361.24 970.63 361.24Q974.5 361.24 976.69 359.78Q978.88 358.32 978.88 356.03Q978.88 354.08 977.2 352.87Q975.52 351.66 972.47 351.06L963.79 349.39Q956.6 347.98 952.85 344.34Q949.11 340.69 949.11 334.97Q949.11 330.27 951.66 326.76Q954.22 323.25 958.93 321.31Q963.64 319.37 970.08 319.37Q976.5 319.37 981.28 321.42Q986.07 323.47 988.77 327.21Q991.48 330.95 991.62 336.12H978.83Q978.78 333.14 976.47 331.17Q974.15 329.2 970.48 329.2Q966.92 329.2 964.89 330.71Q962.85 332.22 962.85 334.42Q962.85 336.34 964.45 337.57Q966.04 338.8 968.87 339.4L978.26 341.22Q985.76 342.7 989.3 346.01Q992.85 349.31 992.85 354.78Q992.85 359.72 990.06 363.4Q987.27 367.07 982.31 369.1Q977.35 371.12 970.87 371.12Z"/>
  <path fill="#A3A3A3" d="M511.87 460.54Q509.81 460.54 508.2 459.92Q506.59 459.29 505.59 458.09Q504.59 456.89 504.37 455.17H507.56Q507.8 456.07 508.4 456.66Q509.01 457.26 509.89 457.56Q510.78 457.86 511.87 457.86Q514.08 457.86 515.34 456.68Q516.59 455.5 516.59 453.32V450.66H516.58Q515.95 451.67 515.12 452.34Q514.28 453 513.27 453.32Q512.27 453.65 511.11 453.65Q508.83 453.65 507.11 452.49Q505.4 451.34 504.45 449.3Q503.5 447.26 503.5 444.58Q503.5 441.89 504.45 439.84Q505.4 437.79 507.12 436.65Q508.83 435.5 511.1 435.5Q512.24 435.5 513.27 435.82Q514.3 436.13 515.16 436.81Q516.01 437.48 516.6 438.54H516.62V435.84H519.72V453.25Q519.72 455.88 518.65 457.48Q517.58 459.08 515.79 459.81Q514 460.54 511.87 460.54ZM511.68 450.88Q513.24 450.88 514.39 450.1Q515.54 449.31 516.16 447.89Q516.79 446.47 516.79 444.57Q516.79 442.65 516.16 441.23Q515.54 439.81 514.39 439.03Q513.24 438.25 511.68 438.25Q510.22 438.25 509.1 438.97Q507.97 439.69 507.34 441.1Q506.71 442.5 506.71 444.57Q506.71 446.62 507.34 448.03Q507.97 449.43 509.1 450.16Q510.22 450.88 511.68 450.88ZM523.79 453.37V435.84H526.95V453.37ZM525.37 432.62Q524.5 432.62 523.9 432.02Q523.3 431.43 523.3 430.58Q523.3 429.73 523.9 429.14Q524.5 428.54 525.36 428.54Q526.23 428.54 526.84 429.13Q527.44 429.73 527.44 430.59Q527.44 431.43 526.84 432.03Q526.23 432.62 525.37 432.62ZM539.06 435.84V438.5H529.23V435.84ZM532.34 431.06H535.51V448.92Q535.51 449.92 535.92 450.31Q536.33 450.71 537.4 450.71Q537.78 450.71 538.25 450.71Q538.71 450.71 539.06 450.71V453.37Q538.63 453.37 538.07 453.37Q537.51 453.37 537.01 453.37Q534.65 453.37 533.49 452.36Q532.34 451.34 532.34 449.3ZM545.08 443.2V453.37H541.92V428.63H545.08V440.14H544.21Q545.07 437.77 546.61 436.64Q548.14 435.5 550.27 435.5Q552.06 435.5 553.51 436.28Q554.96 437.05 555.81 438.6Q556.66 440.14 556.66 442.46V453.37H553.5V442.78Q553.5 440.59 552.45 439.47Q551.41 438.36 549.5 438.36Q548.27 438.36 547.27 438.86Q546.27 439.36 545.67 440.42Q545.08 441.49 545.08 443.2ZM567.12 453.71Q565.34 453.71 563.89 452.93Q562.43 452.15 561.58 450.6Q560.73 449.05 560.73 446.74V435.84H563.89V446.43Q563.89 448.61 564.95 449.73Q566 450.84 567.89 450.84Q569.12 450.84 570.12 450.35Q571.12 449.85 571.72 448.78Q572.31 447.7 572.31 446.01V435.84H575.47V453.37H572.38V449.07H573.18Q572.32 451.42 570.78 452.56Q569.25 453.71 567.12 453.71ZM588.15 453.71Q587.02 453.71 586 453.38Q584.97 453.05 584.13 452.39Q583.28 451.72 582.67 450.71H582.63V453.37H579.54V428.63H582.7V438.4H582.73Q583.3 437.42 584.13 436.78Q584.96 436.14 586 435.82Q587.03 435.5 588.16 435.5Q590.44 435.5 592.15 436.65Q593.86 437.79 594.81 439.84Q595.75 441.89 595.75 444.6Q595.75 447.3 594.81 449.35Q593.86 451.4 592.15 452.55Q590.45 453.71 588.15 453.71ZM587.58 450.93Q589.05 450.93 590.17 450.2Q591.28 449.48 591.92 448.07Q592.55 446.66 592.55 444.6Q592.55 442.53 591.92 441.12Q591.28 439.71 590.17 438.99Q589.05 438.26 587.58 438.26Q586.02 438.26 584.87 439.05Q583.72 439.83 583.09 441.25Q582.47 442.68 582.47 444.6Q582.47 446.51 583.09 447.93Q583.72 449.36 584.87 450.14Q586.02 450.93 587.58 450.93ZM600.72 453.65Q599.8 453.65 599.16 453.01Q598.52 452.37 598.52 451.45Q598.52 450.53 599.16 449.89Q599.8 449.26 600.72 449.26Q601.65 449.26 602.28 449.89Q602.92 450.53 602.92 451.45Q602.92 452.37 602.28 453.01Q601.65 453.65 600.72 453.65ZM613.92 453.77Q611.46 453.77 609.6 452.6Q607.74 451.43 606.71 449.37Q605.67 447.31 605.67 444.63Q605.67 441.94 606.71 439.86Q607.74 437.79 609.6 436.61Q611.46 435.44 613.92 435.44Q615.45 435.44 616.75 435.9Q618.05 436.37 619.04 437.21Q620.03 438.05 620.65 439.19Q621.27 440.33 621.45 441.69H618.28Q618.14 440.93 617.79 440.29Q617.44 439.66 616.89 439.2Q616.34 438.74 615.6 438.49Q614.87 438.23 613.93 438.23Q612.35 438.23 611.22 439.02Q610.08 439.81 609.48 441.25Q608.87 442.69 608.87 444.63Q608.87 446.56 609.48 447.98Q610.08 449.41 611.21 450.19Q612.34 450.98 613.93 450.98Q614.87 450.98 615.59 450.73Q616.31 450.49 616.83 450.03Q617.35 449.57 617.7 448.93Q618.05 448.29 618.23 447.51H621.45Q621.28 448.84 620.66 449.98Q620.04 451.12 619.04 451.97Q618.05 452.82 616.74 453.29Q615.44 453.77 613.92 453.77ZM631.9 453.77Q629.44 453.77 627.57 452.6Q625.71 451.43 624.67 449.38Q623.63 447.32 623.63 444.63Q623.63 441.93 624.67 439.86Q625.71 437.79 627.57 436.61Q629.44 435.44 631.9 435.44Q634.37 435.44 636.23 436.61Q638.09 437.79 639.12 439.86Q640.16 441.93 640.16 444.63Q640.16 447.32 639.12 449.38Q638.09 451.43 636.23 452.6Q634.37 453.77 631.9 453.77ZM631.9 450.97Q633.48 450.97 634.61 450.19Q635.74 449.41 636.35 447.98Q636.96 446.55 636.96 444.63Q636.96 442.69 636.35 441.25Q635.74 439.82 634.61 439.03Q633.48 438.23 631.9 438.23Q630.33 438.23 629.19 439.02Q628.05 439.81 627.44 441.25Q626.84 442.69 626.84 444.63Q626.84 446.56 627.44 447.99Q628.05 449.41 629.18 450.19Q630.32 450.97 631.9 450.97ZM643.35 453.37V435.84H646.43V439.48H646.09Q646.6 438.17 647.44 437.29Q648.28 436.4 649.36 435.95Q650.45 435.5 651.65 435.5Q653.7 435.5 655.14 436.67Q656.59 437.84 656.93 439.48H656.36Q656.73 438.36 657.55 437.46Q658.37 436.56 659.56 436.03Q660.76 435.5 662.22 435.5Q663.84 435.5 665.17 436.2Q666.5 436.91 667.28 438.32Q668.06 439.72 668.06 441.86V453.37H664.9V442.01Q664.9 440.05 663.8 439.19Q662.71 438.33 661.23 438.33Q660.01 438.33 659.13 438.84Q658.24 439.35 657.76 440.25Q657.28 441.15 657.28 442.31V453.37H654.14V441.74Q654.14 440.19 653.13 439.26Q652.11 438.33 650.56 438.33Q649.51 438.33 648.58 438.83Q647.65 439.32 647.09 440.3Q646.52 441.28 646.52 442.73V453.37ZM681.16 427.47 673.19 457.09H670.3L678.26 427.47ZM689.7 453.77Q687.76 453.77 686.19 453.14Q684.62 452.51 683.65 451.25Q682.69 449.98 682.56 448.08H685.69Q685.84 449.57 686.85 450.37Q687.86 451.17 689.63 451.17Q691.38 451.17 692.39 450.45Q693.39 449.72 693.39 448.62Q693.39 447.67 692.69 447.1Q691.98 446.54 690.82 446.28L687.95 445.63Q685.49 445.06 684.23 443.81Q682.96 442.55 682.96 440.62Q682.96 439.1 683.78 437.93Q684.61 436.76 686.08 436.1Q687.56 435.44 689.5 435.44Q691.4 435.44 692.89 436.14Q694.39 436.83 695.26 438.11Q696.13 439.38 696.18 441.14H693.13Q693.11 439.8 692.13 438.92Q691.15 438.04 689.52 438.04Q687.97 438.04 687.05 438.78Q686.13 439.52 686.13 440.59Q686.13 441.54 686.83 442.11Q687.53 442.69 688.75 442.97L691.66 443.64Q694.2 444.22 695.39 445.41Q696.58 446.59 696.58 448.49Q696.58 450.14 695.69 451.32Q694.79 452.51 693.23 453.14Q691.67 453.77 689.7 453.77ZM707.15 453.77Q704.56 453.77 702.72 452.59Q700.87 451.41 699.89 449.34Q698.91 447.28 698.91 444.63Q698.91 441.96 699.93 439.88Q700.96 437.81 702.78 436.62Q704.6 435.44 706.95 435.44Q708.8 435.44 710.28 436.1Q711.77 436.77 712.83 437.99Q713.9 439.22 714.46 440.9Q715.03 442.58 715.03 444.62V445.49H700.44V442.95H713.32L711.95 443.77Q711.95 442.06 711.33 440.8Q710.72 439.54 709.6 438.85Q708.49 438.16 706.97 438.16Q705.47 438.16 704.36 438.85Q703.25 439.54 702.64 440.8Q702.02 442.06 702.02 443.77V445.13Q702.02 446.86 702.62 448.19Q703.22 449.52 704.37 450.27Q705.53 451.02 707.17 451.02Q708.37 451.02 709.28 450.65Q710.19 450.28 710.79 449.62Q711.4 448.95 711.66 448.08H714.75Q714.42 449.77 713.36 451.05Q712.29 452.33 710.69 453.05Q709.09 453.77 707.15 453.77ZM721.32 428.63V453.37H718.16V428.63ZM733.46 435.84V438.5H723.6V435.84ZM726.73 453.37V432.86Q726.73 431.53 727.31 430.59Q727.89 429.65 728.96 429.14Q730.04 428.63 731.53 428.63Q732.16 428.63 732.72 428.63Q733.28 428.63 733.46 428.63V431.29Q733.3 431.29 732.77 431.29Q732.25 431.29 731.94 431.29Q730.83 431.29 730.37 431.77Q729.9 432.24 729.9 433.35V453.37ZM739.09 447.27V443.53H739.36L747.17 435.84H751.17L742.74 444.22H742.33ZM736.15 453.37V428.63H739.32V453.37ZM747.76 453.37 740.89 444.93 743.09 442.73 751.71 453.37ZM753.65 453.37V435.84H756.82V453.37ZM755.23 432.62Q754.37 432.62 753.77 432.02Q753.16 431.43 753.16 430.58Q753.16 429.73 753.77 429.14Q754.37 428.54 755.23 428.54Q756.1 428.54 756.7 429.13Q757.3 429.73 757.3 430.59Q757.3 431.43 756.7 432.03Q756.1 432.62 755.23 432.62ZM764.04 443.2V453.37H760.87V435.84H763.97V440.14H763.17Q764.03 437.77 765.56 436.64Q767.1 435.5 769.23 435.5Q771.02 435.5 772.47 436.28Q773.92 437.05 774.77 438.6Q775.62 440.14 775.62 442.46V453.37H772.46V442.78Q772.46 440.59 771.41 439.47Q770.36 438.36 768.46 438.36Q767.23 438.36 766.23 438.86Q765.22 439.36 764.63 440.42Q764.04 441.49 764.04 443.2Z"/>
</svg>
